<svg width="90" height="27" viewBox="0 0 90 27" fill="none" xmlns="http://www.w3.org/2000/svg">
<rect width="90" height="27" rx="3" fill="#D1D1D1"/>
<g clip-path="url(#clip0_883_1667)">
<path d="M63.4005 21.1238H41.5565L55.6951 1H63.4005V21.1238Z" fill="white"/>
<path d="M64.459 1H55.6951L50.4025 8.53375L52.8689 11.9862L57.9809 4.56H63.0167V17.5562H58.917L58.8917 9.30792L54.362 15.8546H51.3759L48.3321 11.4804L41.5569 21.1242H64.4057C66.391 21.1242 68 19.5396 68 17.5854V4.56792C68 2.61333 66.4443 1 64.459 1Z" fill="#231F20"/>
<path d="M35.3264 23.7508L28.7015 21.1238L26.748 3.65792L49.1523 3.3175L35.3264 23.7508Z" fill="white"/>
<path d="M46.3752 1H27.9359C25.2096 1 23 2.97125 23 5.4025V21.5975C23 24.0292 25.2096 26 27.9359 26H35.7264L53.3302 1H46.3748H46.3752ZM39.7164 9.01542V14.6975L34.2235 22.3904V9.01542H27.9884V4.55375L46.9266 4.55875L43.7699 9.01542H39.7164Z" fill="url(#paint0_linear_883_1667)"/>
<path d="M63.9765 22.1196H41.5565V25.2808H63.9765V22.1196Z" fill="#58595B"/>
<path d="M42.3771 22.5571H44.268V22.945H43.546V24.8396H43.0991V22.945H42.3771V22.5571Z" fill="#F1F1F2"/>
<path d="M45.2317 22.5571H46.9305V22.9388H45.6752V23.5029H46.8014V23.8846H45.6752V24.4583H46.9702V24.84H45.2317V22.5575V22.5571Z" fill="#F1F1F2"/>
<path d="M49.4591 22.9971C49.3478 22.945 49.2344 22.9188 49.1197 22.9188C48.9763 22.9188 48.8446 22.9525 48.7257 23.02C48.6068 23.0875 48.5128 23.1805 48.4443 23.2988C48.3757 23.4171 48.3419 23.5471 48.3419 23.6884C48.3419 23.8296 48.3761 23.9596 48.4443 24.078C48.5128 24.1963 48.6068 24.29 48.7257 24.3584C48.8451 24.4267 48.9763 24.4609 49.1197 24.4609C49.2302 24.4609 49.3411 24.4371 49.4528 24.3892C49.5641 24.3413 49.6631 24.275 49.749 24.1905L50.0106 24.4775C49.8891 24.5992 49.7478 24.6955 49.5865 24.7663C49.4253 24.8371 49.2619 24.8721 49.0964 24.8721C48.8734 24.8721 48.669 24.82 48.4836 24.7159C48.2983 24.6117 48.1523 24.4696 48.0465 24.2905C47.9407 24.1109 47.8873 23.9125 47.8873 23.6955C47.8873 23.4784 47.9415 23.2805 48.0498 23.1021C48.1578 22.9238 48.3055 22.7838 48.4921 22.6813C48.6787 22.5792 48.8857 22.528 49.1129 22.528C49.2784 22.528 49.4409 22.5605 49.5996 22.6259C49.7583 22.6913 49.8942 22.7813 50.0068 22.8967L49.7486 23.2163C49.6669 23.123 49.5704 23.05 49.4587 22.998L49.4591 22.9971Z" fill="#F1F1F2"/>
<path d="M51.0242 22.5571H51.4677V23.5321H52.6235V22.5571H53.067V24.8396H52.6235V23.9138H51.4677V24.8396H51.0242V22.5571Z" fill="#F1F1F2"/>
<path d="M54.2897 22.5571H54.7962L55.5644 24.0275L56.3262 22.5571H56.8327V24.8396H56.4252V23.2029L55.7032 24.605H55.4184L54.693 23.2029V24.8396H54.2888V22.5571H54.2897Z" fill="#F1F1F2"/>
<path d="M59.7673 24.8396L59.562 24.3571H58.4295L58.2242 24.8396H57.7638L58.7803 22.5571H59.2408L60.2442 24.8396H59.7673ZM58.5882 23.9821H59.4029L58.9987 23.0233L58.5882 23.9821Z" fill="#F1F1F2"/>
<path d="M62.6883 23.7046H63.0759V24.5721C62.9545 24.6613 62.811 24.7334 62.6455 24.7888C62.4801 24.8442 62.3176 24.8717 62.1588 24.8717C61.9316 24.8717 61.7242 24.8196 61.538 24.7154C61.3514 24.6113 61.2041 24.4692 61.0957 24.29C60.9874 24.1104 60.9332 23.9121 60.9332 23.695C60.9332 23.4779 60.9882 23.2804 61.0987 23.1034C61.2092 22.9263 61.3598 22.7859 61.5507 22.6825C61.7416 22.5792 61.9532 22.5275 62.1847 22.5275C62.3501 22.5275 62.5135 22.5567 62.6747 22.6154C62.836 22.6742 62.9748 22.7546 63.092 22.8567L62.8402 23.1796C62.7518 23.0971 62.6498 23.0329 62.5338 22.9871C62.4179 22.9413 62.3015 22.9188 62.1842 22.9188C62.0387 22.9188 61.9045 22.9529 61.7818 23.0217C61.659 23.09 61.5625 23.1842 61.4919 23.3038C61.4212 23.4234 61.3861 23.5538 61.3861 23.695C61.3861 23.8363 61.422 23.97 61.4936 24.0896C61.5655 24.2092 61.662 24.3038 61.7835 24.3734C61.9049 24.4429 62.0395 24.4775 62.1876 24.4775C62.2672 24.4775 62.3506 24.465 62.4377 24.44C62.5249 24.415 62.6083 24.3796 62.6879 24.3342V23.705L62.6883 23.7046Z" fill="#F1F1F2"/>
</g>
<defs>
<linearGradient id="paint0_linear_883_1667" x1="23" y1="13.5" x2="53.3302" y2="13.5" gradientUnits="userSpaceOnUse">
<stop stop-color="#ED1C24"/>
<stop offset="1" stop-color="#B31217"/>
</linearGradient>
<clipPath id="clip0_883_1667">
<rect width="45" height="25" fill="white" transform="translate(23 1)"/>
</clipPath>
</defs>
</svg>
