<svg width="16" height="16" viewBox="0 0 16 16" fill="none" xmlns="http://www.w3.org/2000/svg">
<g clip-path="url(#clip0_3007_14406)">
<path d="M8 0C3.58241 0 0 3.58241 0 8C0 12.4176 3.58241 16 8 16C12.4176 16 16 12.4176 16 8C16 3.58241 12.4176 0 8 0ZM12.0134 6.12103V7.20425C11.5027 7.20444 11.0064 7.10434 10.5383 6.90688C10.2391 6.78077 9.95754 6.61654 9.70047 6.41825L9.70816 9.75241C9.70494 10.5032 9.40791 11.2086 8.87031 11.7399C8.43281 12.1724 7.87844 12.4475 7.27756 12.5365C7.13514 12.5576 6.99135 12.5681 6.84737 12.5681C6.20416 12.5681 5.5935 12.3597 5.09397 11.9753C4.99939 11.9025 4.90939 11.8239 4.82447 11.7399C4.24184 11.1641 3.94141 10.3837 3.992 9.56262C4.03059 8.93766 4.28081 8.34163 4.69794 7.87447C5.24981 7.25628 6.02187 6.91316 6.84737 6.91316C6.99269 6.91316 7.13637 6.92406 7.27756 6.94497V8.45959C7.14021 8.41423 6.99649 8.39112 6.85184 8.39116C6.09766 8.39116 5.4875 9.00647 5.49878 9.76122C5.50594 10.2441 5.76972 10.6662 6.15878 10.8989C6.34621 11.0113 6.55822 11.0764 6.77644 11.0884C6.94617 11.0978 7.11616 11.0753 7.27756 11.0219C7.81641 10.8439 8.20512 10.3378 8.20512 9.74084L8.20691 7.50812V3.43187H9.69866C9.6999 3.57687 9.71474 3.72143 9.74297 3.86366C9.85556 4.42931 10.1744 4.92006 10.6182 5.25462C11.0051 5.54647 11.4869 5.71947 12.0091 5.71947C12.0095 5.71947 12.0138 5.71947 12.0134 5.71912V6.12103H12.0134Z" fill="black"/>
</g>
<defs>
<clipPath id="clip0_3007_14406">
<rect width="16" height="16" fill="white"/>
</clipPath>
</defs>
</svg>
