<svg width="90" height="27" viewBox="0 0 90 27" fill="none" xmlns="http://www.w3.org/2000/svg">
<rect width="90" height="27" rx="3" fill="#231916"/>
<g clip-path="url(#clip0_883_1709)">
<path d="M51.9749 16.4188H54.7415V22.2784H56.1637V16.4188H58.9302V15.0418H51.9764V16.4188H51.9749ZM34.9719 20.9029V19.1242H38.6327V17.7473H34.9719V16.4202H39.3107V15.0448H33.5497V22.2798H39.5559V20.9029H34.9705H34.9719ZM44.499 17.9922V16.4173H47.1169C47.7588 16.4217 48.0256 16.7267 48.0314 17.2209C48.017 17.7092 47.7761 17.9966 47.0708 17.9907H44.499V17.9922ZM47.1314 15.0433H43.0782ZM43.0782 15.0433V22.2784H44.499V19.3705H46.54L48.1699 22.2784H49.7637L48.0761 19.262C48.9416 18.9409 49.4781 18.1403 49.4839 17.1959C49.4839 15.8249 48.5463 15.0477 47.1299 15.0418M63.3382 15.0418H61.9145V19.8163C61.9145 21.6669 62.8564 22.4089 64.9032 22.4089C66.9571 22.4103 67.9019 21.6625 67.9091 19.8222V15.0418H66.484V19.5978C66.484 20.7797 66.2561 21.0158 64.9147 21.0202C63.5617 21.0158 63.3367 20.7827 63.3367 19.5978V15.0418H63.3382ZM26.8801 19.941L24.5708 15.0418H23L26.4286 22.2769H27.3171L30.7976 15.0418H29.224L26.8801 19.941Z" fill="white"/>
<path d="M51.9692 25.4765V23.6964H52.3024V24.3533C52.4019 24.2228 52.5432 24.1553 52.6932 24.1553C53.0163 24.1553 53.2543 24.4119 53.2543 24.8328C53.2543 25.2536 53.0135 25.5073 52.6932 25.5073C52.5404 25.5073 52.4019 25.4384 52.3024 25.3094V25.475H51.9692V25.4765ZM52.5894 25.2067C52.7841 25.2067 52.9125 25.0571 52.9125 24.8328C52.9125 24.6084 52.7841 24.4559 52.5894 24.4559C52.4812 24.4559 52.3586 24.5204 52.3038 24.6055V25.0615C52.3586 25.1437 52.4827 25.2052 52.5894 25.2052V25.2067Z" fill="white"/>
<path d="M53.5125 25.6774C53.5414 25.6906 53.5861 25.6994 53.6178 25.6994C53.7044 25.6994 53.7621 25.6759 53.7938 25.6055L53.8414 25.4956L53.3265 24.1876H53.6827L54.013 25.0835L54.3434 24.1876H54.7025L54.1068 25.6877C54.0116 25.9311 53.8443 25.9941 53.6265 26C53.5875 26 53.5024 25.9927 53.4606 25.9809L53.5111 25.6774H53.5125Z" fill="white"/>
<path d="M56.3988 25.4765V25.3108C56.2993 25.4384 56.1593 25.5088 56.0079 25.5088C55.6877 25.5088 55.4468 25.2639 55.4468 24.8342C55.4468 24.4046 55.6862 24.1568 56.0079 24.1568C56.1579 24.1568 56.2993 24.2228 56.3988 24.3547V23.6978H56.7349V25.478H56.3988V25.4765ZM56.3988 25.0601V24.604C56.344 24.519 56.2228 24.4574 56.1103 24.4574C55.9213 24.4574 55.7901 24.6099 55.7901 24.8342C55.7901 25.0586 55.9213 25.2082 56.1103 25.2082C56.2228 25.2082 56.344 25.1466 56.3988 25.0615V25.0601Z" fill="white"/>
<path d="M57.032 23.8459C57.032 23.7345 57.1243 23.645 57.231 23.645C57.3378 23.645 57.4301 23.733 57.4301 23.8459C57.4301 23.9588 57.3407 24.0483 57.231 24.0483C57.1214 24.0483 57.032 23.9574 57.032 23.8459ZM57.0666 25.4765V24.1876H57.3998V25.4765H57.0666Z" fill="white"/>
<path d="M58.6013 25.4765V25.3108C58.5018 25.4384 58.3619 25.5088 58.2104 25.5088C57.8902 25.5088 57.6493 25.2639 57.6493 24.8342C57.6493 24.4046 57.8888 24.1568 58.2104 24.1568C58.3604 24.1568 58.5018 24.2228 58.6013 24.3547V23.6978H58.9374V25.478H58.6013V25.4765ZM58.6013 25.0601V24.604C58.5465 24.519 58.4253 24.4574 58.3128 24.4574C58.1239 24.4574 57.9926 24.6099 57.9926 24.8342C57.9926 25.0586 58.1239 25.2082 58.3128 25.2082C58.4253 25.2082 58.5465 25.1466 58.6013 25.0615V25.0601Z" fill="white"/>
<path d="M59.1884 24.8313C59.1884 24.4662 59.4408 24.1568 59.8576 24.1568C60.2745 24.1568 60.5298 24.4662 60.5298 24.8313C60.5298 25.1964 60.2774 25.5088 59.8576 25.5088C59.4379 25.5088 59.1884 25.1994 59.1884 24.8313ZM60.1836 24.8313C60.1836 24.6304 60.0653 24.4574 59.8576 24.4574C59.6499 24.4574 59.5345 24.6304 59.5345 24.8313C59.5345 25.0322 59.6499 25.2082 59.8576 25.2082C60.0653 25.2082 60.1836 25.0351 60.1836 24.8313Z" fill="white"/>
<path d="M61.6318 25.4765V24.6979C61.6318 24.519 61.5395 24.4574 61.3981 24.4574C61.2669 24.4574 61.1645 24.5322 61.1097 24.6099V25.4765H60.7765V24.1876H61.1097V24.3562C61.1904 24.2579 61.3462 24.1568 61.5539 24.1568C61.8323 24.1568 61.9664 24.3166 61.9664 24.5673V25.478H61.6332L61.6318 25.4765Z" fill="white"/>
<path d="M62.2708 25.8079L62.4208 25.563C62.5232 25.6774 62.6573 25.7228 62.8175 25.7228C62.9776 25.7228 63.1665 25.651 63.1665 25.3973V25.2668C63.067 25.3944 62.93 25.4692 62.7756 25.4692C62.4583 25.4692 62.216 25.2419 62.216 24.8122C62.216 24.3826 62.4554 24.1553 62.7756 24.1553C62.9285 24.1553 63.0641 24.2213 63.1665 24.3533V24.1876H63.5026V25.3885C63.5026 25.8797 63.1305 26 62.8175 26C62.5996 26 62.4309 25.9487 62.2708 25.8079ZM63.1665 25.0205V24.604C63.1117 24.519 62.9905 24.4574 62.8809 24.4574C62.692 24.4574 62.5607 24.5908 62.5607 24.8122C62.5607 25.0337 62.692 25.1671 62.8809 25.1671C62.9905 25.1671 63.1117 25.1026 63.1665 25.0205Z" fill="white"/>
<path d="M64.1618 25.4765L63.6526 24.1876H64.0089L64.3392 25.0835L64.6695 24.1876H65.0287L64.5195 25.4765H64.1603H64.1618Z" fill="white"/>
<path d="M65.1455 23.8459C65.1455 23.7345 65.2378 23.645 65.3445 23.645C65.4513 23.645 65.5436 23.733 65.5436 23.8459C65.5436 23.9588 65.4542 24.0483 65.3445 24.0483C65.2349 24.0483 65.1455 23.9574 65.1455 23.8459ZM65.1801 25.4765V24.1876H65.5133V25.4765H65.1801Z" fill="white"/>
<path d="M65.7628 24.8313C65.7628 24.4574 66.0326 24.1568 66.4191 24.1568C66.8057 24.1568 67.0538 24.4456 67.0538 24.8665V24.9413H66.1119C66.1335 25.104 66.2619 25.2404 66.4768 25.2404C66.585 25.2404 66.7336 25.192 66.8158 25.1128L66.9629 25.3313C66.8374 25.4486 66.6369 25.5102 66.4408 25.5102C66.0542 25.5102 65.7643 25.2463 65.7643 24.8328L65.7628 24.8313ZM66.4191 24.4251C66.2114 24.4251 66.122 24.582 66.1061 24.7111H66.7307C66.7235 24.5879 66.6384 24.4251 66.4177 24.4251H66.4191Z" fill="white"/>
<path d="M67.3625 25.1568V24.4838H67.1519V24.1876H67.3625V23.8356H67.6985V24.1876H67.9553V24.4838H67.6985V25.0659C67.6985 25.1466 67.7404 25.2067 67.8139 25.2067C67.8644 25.2067 67.9106 25.1876 67.9293 25.1686L68 25.4252C67.9495 25.4706 67.8615 25.5073 67.7216 25.5073C67.4879 25.5073 67.3625 25.3841 67.3625 25.1554V25.1568Z" fill="white"/>
<path d="M37.8971 4.99725C37.5105 4.72744 37.4629 4.43857 37.5553 4.14969C37.5827 4.06318 37.6432 3.98986 37.7154 3.92974C37.7211 3.92534 37.7255 3.92094 37.7312 3.91654C37.7615 3.88868 37.7817 3.84909 37.7817 3.80363C37.7817 3.73178 37.7327 3.67312 37.6678 3.65699C37.6562 3.65553 37.6447 3.65406 37.6331 3.65259C36.1864 3.4605 32.628 3.02206 29.0667 2.6276C26.9551 2.39299 24.8463 2.17303 23.1803 2.00293C23.1688 2.00293 23.1587 2.00147 23.1471 2C23.0664 2 23 2.06892 23 2.15104C23 2.21995 23.0447 2.27714 23.1053 2.29621C23.1139 2.29767 23.1212 2.29914 23.1298 2.30207C25.6122 2.85636 28.2042 3.64233 30.7298 4.90194C36.384 7.72469 41.6488 11.8144 41.6488 11.8144H49.3483C49.3483 11.8144 44.235 8.68516 43.221 8.13087C42.2084 7.57805 38.2822 5.26706 37.8957 4.99725" fill="white"/>
<path d="M67.8529 2C67.8413 2 67.8298 2.00147 67.8197 2.00293C66.1537 2.17303 64.0449 2.39299 61.9347 2.62614C58.3749 3.02059 54.815 3.45904 53.3683 3.65113C53.3567 3.6526 53.3452 3.65406 53.3337 3.65553C53.2673 3.67166 53.2197 3.73031 53.2197 3.80216C53.2197 3.84762 53.2399 3.88721 53.2702 3.91507C53.2745 3.91947 53.2803 3.92387 53.2861 3.92827C53.3582 3.98839 53.4188 4.06171 53.4462 4.14823C53.537 4.4371 53.4894 4.72597 53.1043 4.99579C52.7178 5.2656 48.7915 7.57659 47.779 8.12941C47.4833 8.29071 46.8371 8.67343 46.0712 9.13094C47.7213 10.1266 49.5228 11.2293 49.6469 11.3056L49.8532 11.4317C51.2956 10.3539 55.6516 7.20413 60.2687 4.89901C62.7944 3.6394 65.3849 2.85343 67.8673 2.29914C67.8759 2.29914 67.8832 2.29621 67.8918 2.29474C67.9524 2.27568 67.9971 2.21849 67.9971 2.14957C67.9971 2.06599 67.9308 2 67.85 1.99854" fill="white"/>
</g>
<defs>
<clipPath id="clip0_883_1709">
<rect width="45" height="24" fill="white" transform="translate(23 2)"/>
</clipPath>
</defs>
</svg>
