<svg width="16" height="16" viewBox="0 0 16 16" fill="none" xmlns="http://www.w3.org/2000/svg">
<g clip-path="url(#clip0_3007_14403)">
<path fill-rule="evenodd" clip-rule="evenodd" d="M12 8.302C12 8.9495 11.92 9.597 11.92 9.597C11.92 9.597 11.842 10.148 11.602 10.391C11.298 10.7095 10.957 10.711 10.8005 10.7295C9.681 10.8105 8 10.813 8 10.813C8 10.813 5.92 10.794 5.28 10.733C5.102 10.6995 4.702 10.7095 4.398 10.391C4.158 10.148 4.08 9.597 4.08 9.597C4.08 9.597 4 8.9495 4 8.302V7.695C4 7.0475 4.08 6.4005 4.08 6.4005C4.08 6.4005 4.158 5.849 4.398 5.606C4.702 5.2875 5.043 5.286 5.1995 5.2675C6.319 5.1865 7.9985 5.1865 7.9985 5.1865H8.0015C8.0015 5.1865 9.681 5.1865 10.8005 5.2675C10.957 5.286 11.298 5.2875 11.602 5.606C11.842 5.849 11.92 6.4005 11.92 6.4005C11.92 6.4005 12 7.0475 12 7.695V8.302ZM8 0C3.5815 0 0 3.5815 0 8C0 12.418 3.5815 16 8 16C12.4185 16 16 12.418 16 8C16 3.5815 12.4185 0 8 0Z" fill="#EA412C"/>
<path fill-rule="evenodd" clip-rule="evenodd" d="M7.17408 9.03749L9.33558 7.91749L7.17358 6.78949L7.17408 9.03749Z" fill="#EA412C"/>
</g>
<defs>
<clipPath id="clip0_3007_14403">
<rect width="16" height="16" fill="white"/>
</clipPath>
</defs>
</svg>
